<svg xmlns="http://www.w3.org/2000/svg" width="90" height="30" viewBox="0 0 90 30" fill="none"><path d="M16.6632 18.4015C16.8115 18.098 16.9504 17.8245 17.08 17.547C17.7884 16.0276 18.513 14.5154 19.1954 12.9849C19.8262 11.5702 20.4036 10.1328 21.0192 8.7113C21.3069 8.04785 21.6377 7.40274 21.9313 6.7417C22.0305 6.5183 22.1881 6.43579 22.4134 6.42855C23.5842 6.39188 24.7561 6.36245 25.9264 6.31661C26.5818 6.29104 27.2357 6.23748 27.8906 6.20081C28.0423 6.19212 28.195 6.19936 28.3511 6.19936C28.3511 6.57958 28.3511 6.9376 28.3511 7.29031C27.9392 7.3791 27.5474 7.4452 27.167 7.55039C26.8268 7.64496 26.4925 7.76655 26.1684 7.90551C25.813 8.05799 25.6176 8.31806 25.6486 8.7306C25.705 9.48814 25.7384 10.2471 25.7801 11.0056C25.8361 12.029 25.8979 13.052 25.9441 14.0758C25.9966 15.2382 26.0325 16.4015 26.0806 17.5644C26.1179 18.4618 26.1572 19.3593 26.2062 20.2563C26.2362 20.8097 26.2877 21.3622 26.3265 21.9152C26.3432 22.1511 26.4478 22.2983 26.6923 22.3692C27.3953 22.5733 28.0929 22.7972 28.7949 23.0052C28.9255 23.0438 28.9893 23.0997 28.9849 23.2387C28.978 23.4727 28.9829 23.7072 28.9829 23.9436C27.4448 23.8457 25.9313 23.6913 24.4164 23.6691C22.8989 23.6464 21.38 23.7555 19.8763 23.8066C19.8763 23.5591 19.8699 23.2715 19.8832 22.9844C19.8852 22.941 19.975 22.8787 20.0339 22.8647C20.5145 22.7489 20.9971 22.6428 21.4792 22.5337C21.5268 22.5231 21.5749 22.5144 21.6225 22.5029C22.1974 22.3596 22.3648 22.183 22.3746 21.5996C22.3888 20.7441 22.3776 19.8886 22.3663 19.0331C22.352 17.9538 22.3402 16.8739 22.302 15.7955C22.2617 14.6568 22.192 13.519 22.1336 12.3813C22.0938 11.6044 22.0521 10.8281 22.0094 10.0512C22.0049 9.96872 21.9912 9.8867 21.947 9.7984C21.7835 10.1651 21.6206 10.5318 21.4566 10.898C20.2229 13.6498 18.9681 16.3928 17.7654 19.1576C17.2008 20.4551 16.7369 21.7945 16.2283 23.1156C16.133 23.3632 16.0496 23.615 15.946 23.8587C15.9234 23.9118 15.838 23.9702 15.7791 23.9721C15.5218 23.9822 15.2636 23.9644 15.0064 23.974C14.8728 23.9789 14.8301 23.9176 14.7914 23.8085C14.542 23.1108 14.3206 22.4011 14.0255 21.7222C13.5469 20.622 13.0211 19.5417 12.51 18.4556C11.213 15.6985 9.91308 12.9429 8.6141 10.1873C8.5871 10.1294 8.55617 10.0734 8.52721 10.017C8.50757 10.0189 8.48793 10.0208 8.46781 10.0228C8.46781 10.5497 8.47468 11.077 8.46633 11.6039C8.44179 13.2382 8.41528 14.8725 8.38189 16.5062C8.35637 17.7424 8.30777 18.9777 8.29255 20.2138C8.28715 20.6384 8.32397 21.0679 8.39171 21.4872C8.45553 21.8809 8.70787 22.1666 9.07115 22.3591C9.62245 22.6515 10.2258 22.7846 10.8262 22.9217C11.0088 22.9632 11.08 23.0249 11.0653 23.215C11.0461 23.4597 11.0604 23.7067 11.0604 23.988C9.89589 23.9118 8.75009 23.7955 7.60182 23.7738C6.4511 23.7521 5.29842 23.8254 4.14819 23.8568C4.14819 23.5682 4.14819 23.2768 4.14819 22.9815C4.51147 22.9135 4.8561 22.8638 5.19189 22.7813C5.46926 22.7132 5.74123 22.6177 6.00731 22.5135C6.30825 22.3953 6.49676 22.1704 6.59298 21.8611C6.78886 21.2334 6.8566 20.5902 6.87919 19.9374C6.93171 18.4068 6.9921 16.8763 7.0515 15.3458C7.10255 14.0324 7.16343 12.719 7.2081 11.4056C7.23314 10.6713 7.24247 9.93543 7.24149 9.20057C7.24099 8.92457 7.19436 8.64906 7.16441 8.37355C7.13152 8.07294 6.96853 7.87029 6.67054 7.78971C6.21693 7.66764 5.76136 7.55232 5.30529 7.43893C5.08683 7.3844 4.86543 7.34146 4.63421 7.2908C4.63421 6.95352 4.63421 6.62976 4.63421 6.26064C5.15704 6.26064 5.67643 6.25002 6.19533 6.26305C7.14576 6.28669 8.09618 6.3224 9.0466 6.35618C9.63522 6.37741 10.2233 6.40153 10.8115 6.43241C10.8669 6.43531 10.9401 6.48018 10.9695 6.52698C11.1576 6.82904 11.3618 7.12481 11.512 7.4452C12.486 9.52578 13.4418 11.615 14.4158 13.6961C15.1213 15.2039 15.8454 16.7031 16.5611 18.2061C16.5876 18.2597 16.6166 18.3118 16.6632 18.4015Z" fill="#C00000"></path><path d="M0 1.97829C0 1.31339 0 0.662967 0 0C29.9997 0 59.9939 0 90 0C90 0.654765 90 1.30953 90 1.97829C60.0067 1.97829 30.0119 1.97829 0 1.97829Z" fill="#002777"></path><path d="M0.00732422 28.0093C30.005 28.0093 59.9959 28.0093 89.999 28.0093C89.999 28.6727 89.999 29.3318 89.999 30.0001C60.0013 30.0001 30.0104 30.0001 0.00732422 30.0001C0.00732422 29.3362 0.00732422 28.6771 0.00732422 28.0093Z" fill="#002777"></path><path d="M49.4043 23.9209C49.4043 23.643 49.4097 23.409 49.4018 23.1754C49.3979 23.0615 49.4543 23.0051 49.552 22.9819C49.8962 22.9018 50.2418 22.8266 50.5864 22.7494C50.9374 22.6707 51.2904 22.5979 51.6384 22.5067C51.7018 22.4903 51.7813 22.4039 51.7911 22.3407C51.8314 22.0859 51.8677 21.8273 51.8687 21.5701C51.8756 20.2553 51.8603 18.9404 51.8721 17.6261C51.8932 15.3713 51.9374 13.1166 51.9536 10.8613C51.961 9.85479 51.9212 8.8478 51.9099 7.8408C51.9084 7.70907 51.8618 7.66372 51.7337 7.64876C51.1505 7.58217 50.5697 7.49773 49.9855 7.43887C49.5564 7.39592 49.555 7.40944 49.552 6.98579C49.551 6.85937 49.552 6.73247 49.5496 6.60606C49.5471 6.47626 49.6026 6.40292 49.7405 6.39327C50.0763 6.36963 50.4121 6.31993 50.7479 6.32089C51.5565 6.32379 52.3655 6.36094 53.174 6.36239C53.664 6.36336 54.1539 6.32427 54.6439 6.30063C56.34 6.21812 58.0322 6.01981 59.7337 6.10425C61.4029 6.18724 62.906 6.68085 64.0941 7.89966C64.7362 8.55829 65.1893 9.31486 65.3121 10.2365C65.4667 11.3988 65.1569 12.4319 64.4053 13.3371C63.7632 14.1105 62.9031 14.5573 61.9674 14.8878C61.8815 14.9182 61.7941 14.9457 61.6851 14.9815C61.7283 15.0543 61.7622 15.1219 61.8054 15.1836C63.2541 17.2459 64.5344 19.4119 65.8535 21.5532C66.2006 22.1163 66.6547 22.4883 67.2821 22.6924C67.5762 22.788 67.8501 22.9433 68.1383 23.0587C68.345 23.1412 68.4147 23.2999 68.4289 23.4953C68.4387 23.6266 68.4309 23.7597 68.4309 23.9035C68.1231 23.9035 67.8261 23.9146 67.53 23.9016C66.7102 23.8654 65.8904 23.8205 65.0705 23.7771C64.2836 23.7356 63.5015 23.7819 62.7234 23.8977C62.5256 23.9272 62.4141 23.8837 62.3145 23.6874C61.2477 21.5754 60.1687 19.4693 59.0887 17.3636C58.907 17.0094 58.693 16.6707 58.5128 16.3156C58.2511 15.7993 57.8216 15.5416 57.2531 15.5175C56.746 15.4963 56.2374 15.5132 55.7047 15.5132C55.6905 15.7704 55.665 16.0208 55.666 16.2712C55.6679 16.7778 55.6944 17.284 55.692 17.7906C55.6861 19.147 55.6728 20.5033 55.6537 21.8596C55.6517 22.0116 55.6954 22.0994 55.8388 22.1395C56.2673 22.2587 56.6964 22.3749 57.1245 22.4956C57.5413 22.6133 57.9556 22.7383 58.3734 22.8531C58.4873 22.8845 58.5324 22.939 58.5236 23.0567C58.503 23.338 58.4922 23.6198 58.475 23.9479C57.8078 23.9141 57.1682 23.8847 56.5285 23.8495C55.5737 23.7969 54.6193 23.7004 53.665 23.698C52.8333 23.6956 52.0017 23.8032 51.1691 23.8509C50.5908 23.8833 50.0096 23.8973 49.4043 23.9209ZM55.7327 7.51462C55.7131 9.76263 55.6934 11.9889 55.6733 14.2538C55.9733 14.2538 56.26 14.2514 56.5467 14.2543C57.2963 14.2615 58.0415 14.2181 58.7691 14.0237C59.8348 13.739 60.5845 13.1161 60.8761 12.043C61.0602 11.3655 60.9875 10.6808 60.853 10.001C60.5963 8.70304 59.825 7.87554 58.5084 7.59134C57.6031 7.39641 56.6812 7.43453 55.7327 7.51462Z" fill="#C00000"></path><path d="M36.1372 22.8694C36.1372 23.1623 36.1382 23.4446 36.1367 23.7273C36.1363 23.8359 36.0877 23.8846 35.9659 23.8774C35.1397 23.8286 34.3125 23.7886 33.4863 23.7394C33.0091 23.7109 32.5324 23.6448 32.0552 23.6443C31.7283 23.6443 31.4023 23.7423 31.0739 23.7722C30.4779 23.8272 29.8805 23.8639 29.2673 23.9097C29.2673 23.5801 29.2629 23.2988 29.2732 23.0185C29.2742 22.9862 29.3537 22.9394 29.4038 22.9283C29.851 22.8289 30.2958 22.7078 30.7489 22.647C31.4681 22.5505 31.8564 22.108 32.095 21.4928C34.0852 16.3666 36.0729 11.2395 38.0563 6.11091C38.1137 5.96278 38.1814 5.91115 38.3429 5.91694C38.7229 5.93045 39.1039 5.9261 39.4838 5.91838C39.6002 5.91597 39.6591 5.95361 39.7028 6.05638C40.042 6.84866 40.3871 7.63805 40.7273 8.42984C41.639 10.5505 42.5658 12.6648 43.4539 14.7951C44.2674 16.7469 45.0342 18.7174 45.8305 20.6764C45.9959 21.0832 46.2134 21.4696 46.3862 21.874C46.5958 22.3628 46.9944 22.536 47.4937 22.6103C47.884 22.6687 48.2654 22.7879 48.6493 22.8858C48.6945 22.8974 48.7603 22.9437 48.7637 22.9789C48.7951 23.2694 48.8138 23.5618 48.8364 23.8508C48.3725 23.8508 47.9498 23.8735 47.5305 23.847C45.9326 23.7447 44.3346 23.6424 42.7318 23.7235C41.7946 23.7707 40.8574 23.82 39.9203 23.8672C39.8599 23.8701 39.7995 23.8677 39.7033 23.8677C39.717 23.5855 39.7234 23.3109 39.7499 23.0388C39.7539 22.9973 39.8476 22.9456 39.9075 22.9312C40.4902 22.7941 41.0749 22.6663 41.6576 22.5307C42.1687 22.412 42.3881 22.2441 42.1157 21.5758C41.6061 20.3256 41.0906 19.0774 40.583 17.8262C40.5379 17.7152 40.4873 17.6738 40.3601 17.6733C38.6974 17.6699 37.0346 17.6602 35.3719 17.6511C35.2816 17.6506 35.2094 17.652 35.1701 17.7582C34.7087 19.0195 34.2423 20.2783 33.7813 21.5396C33.7465 21.6342 33.7307 21.7399 33.7288 21.8412C33.7234 22.123 33.8211 22.369 34.1112 22.4564C34.501 22.5736 34.9011 22.66 35.2997 22.743C35.5648 22.7985 35.8339 22.825 36.1372 22.8694ZM39.9384 16.2421C39.3002 14.4501 38.5904 12.7111 37.7735 10.9582C37.094 12.7396 36.4323 14.4738 35.7578 16.2421C37.1667 16.2421 38.5374 16.2421 39.9384 16.2421Z" fill="#C00000"></path><path d="M85.6097 10.7126C85.1885 10.7126 84.7977 10.7174 84.4069 10.7068C84.352 10.7054 84.2872 10.6354 84.2474 10.5823C83.7285 9.88366 83.1659 9.22311 82.485 8.67063C80.9597 7.43348 79.2194 6.97558 77.2807 7.37124C76.1747 7.59705 75.3686 8.28028 74.7343 9.17678C73.9999 10.2151 73.5895 11.378 73.372 12.6123C73.0946 14.1862 73.0986 15.7717 73.2719 17.3519C73.4324 18.8125 73.9852 20.1404 74.9479 21.2728C75.6209 22.0646 76.5468 22.4728 77.5463 22.7088C79.3244 23.1285 80.9003 22.6822 82.3107 21.5816C83.1487 20.9278 83.8355 20.1365 84.4629 19.2902C84.5189 19.2144 84.6313 19.1478 84.7251 19.1367C85.106 19.0909 85.4894 19.0687 85.9101 19.0349C85.8355 19.446 85.7727 19.8118 85.703 20.1765C85.538 21.0388 85.4241 21.9126 85.1144 22.742C85.0815 22.8308 85.0167 22.9244 84.9391 22.9775C84.2381 23.4605 83.4379 23.7037 82.6107 23.8639C81.0063 24.1746 79.3843 24.22 77.7569 24.1249C76.566 24.0554 75.3769 23.9116 74.2797 23.4359C71.4196 22.1963 69.5281 20.1452 68.991 17.0475C68.6577 15.1242 68.7662 13.2144 69.5581 11.4065C70.7667 8.64747 72.8865 6.89596 75.8477 6.14084C77.1389 5.81177 78.458 5.80067 79.7761 5.86918C80.6745 5.91551 81.5734 5.9956 82.4654 6.11092C83.1487 6.19922 83.8223 6.36424 84.4983 6.5032C84.5542 6.51478 84.623 6.58137 84.6416 6.63686C84.9995 7.69789 85.3765 8.75459 85.5429 9.86677C85.5842 10.1379 85.5876 10.4149 85.6097 10.7126Z" fill="#C00000"></path></svg>